PathFileType	4	(X/Y/Z)	C:\Vicon\SynologyDrive\Alex P\Athlete_3\Athlete_3_22_07_06\static_01\marker_experimental.trc																																																																																																																																																																																																																									
DataRate	CameraRate	NumFrames	NumMarkers	Units	OrigDataRate	OrigDataStartFrame	OrigNumFrames																																																																																																																																																																																																																					
200	200	5	79	mm	200	173	693																																																																																																																																																																																																																					
Frame#	Time	GLAB			RFHD			LFHD			C7			T6			SPINMOL			SPINM2			SPINM3			T12			BELTOL			BELT2			BELT3			SACROL			SACR2			SACR3			LASI			RASI			LPSI			RPSI			LTHOL			LTH2			LTH3			LKNEL			LKNEM			LFIB			LSHAOL			LSHA2			LSHA3			LMALL			LMALM			LHEE			LTOE			LM5			RTHOL			RTH2			RTH3			RKNEL			RKNEM			RFIB			RSHAOL			RSHA2			RSHA3			RMALL			RMALM			RHEE			RTOE			RM5			STRN			XIPH			LACR			LUAOL			LUA2			LUA3			LCUBL			LCUBM			LLAOL			LLA2			LLA3			LWRR			LWRU			RACR			RUAOL			RUA2			RUA3			RCUBL			RCUBM			RLAOL			RLA2			RLA3			RWRR			RWRU			Bar:BL			Bar:BR		 	LKJCWK			RKJCWK			RAJCWK			LAJCWK			RHJCWK			LHJCWK
		X1	Y1	Z1	X2	Y2	Z2	X3	Y3	Z3	X4	Y4	Z4	X5	Y5	Z5	X6	Y6	Z6	X7	Y7	Z7	X8	Y8	Z8	X9	Y9	Z9	X10	Y10	Z10	X11	Y11	Z11	X12	Y12	Z12	X13	Y13	Z13	X14	Y14	Z14	X15	Y15	Z15	X16	Y16	Z16	X17	Y17	Z17	X18	Y18	Z18	X19	Y19	Z19	X20	Y20	Z20	X21	Y21	Z21	X22	Y22	Z22	X23	Y23	Z23	X24	Y24	Z24	X25	Y25	Z25	X26	Y26	Z26	X27	Y27	Z27	X28	Y28	Z28	X29	Y29	Z29	X30	Y30	Z30	X31	Y31	Z31	X32	Y32	Z32	X33	Y33	Z33	X34	Y34	Z34	X35	Y35	Z35	X36	Y36	Z36	X37	Y37	Z37	X38	Y38	Z38	X39	Y39	Z39	X40	Y40	Z40	X41	Y41	Z41	X42	Y42	Z42	X43	Y43	Z43	X44	Y44	Z44	X45	Y45	Z45	X46	Y46	Z46	X47	Y47	Z47	X48	Y48	Z48	X49	Y49	Z49	X50	Y50	Z50	X51	Y51	Z51	X52	Y52	Z52	X53	Y53	Z53	X54	Y54	Z54	X55	Y55	Z55	X56	Y56	Z56	X57	Y57	Z57	X58	Y58	Z58	X59	Y59	Z59	X60	Y60	Z60	X61	Y61	Z61	X62	Y62	Z62	X63	Y63	Z63	X64	Y64	Z64	X65	Y65	Z65	X66	Y66	Z66	X67	Y67	Z67	X68	Y68	Z68	X69	Y69	Z69	X70	Y70	Z70	X71	Y71	Z71	X72	Y72	Z72	X73	Y73	Z73	X74 	Y74 	Z74 	X75 	Y75 	Z75 	X76 	Y76 	Z76 	X77 	Y77 	Z77 	X78 	Y78 	Z78 	X79 	Y79 	Z79
																																																																																																																																																																																																																												
174	0.865	358.4507	1573.2383	-1215.6506	299.978	1588.2789	-1138.9426	295.3048	1588.4404	-1291.0841	133.737	1449.2596	-1211.5175	78.619	1244.5106	-1226.0739	74.307	1212.2104	-1230.3578	69.354	1151.2874	-1178.5052	78.5607	1150.4102	-1227.4124	91.8113	1109.5275	-1226.2769	68.3912	1087.0944	-1225.5663	69.6909	1027.5034	-1172.4604	62.0052	1025.3314	-1222.0402	72.7364	975.6262	-1247.3716	79.826	985.2188	-1197.735	49.2826	927.2243	-1208.8679	288.567	942.4268	-1336.376	292.8195	941.9966	-1108.7867	84.4309	991.7167	-1259.2609	85.2284	990.3665	-1170.111	202.3598	737.6173	-1443.3625	153.1082	677.0736	-1426.4362	201.3899	675.627	-1440.521	192.5269	497.9962	-1426.9479	215.9107	465.9984	-1283.062	152.2941	442.3733	-1428.001	144.8273	326.3476	-1449.6353	101.6635	260.3058	-1444.3166	150.9852	264.4796	-1449.9476	126.1563	85.3401	-1434.0923	169.3601	96.3348	-1350.4432	78.4323	38.923	-1374.8314	289.6471	47.2998	-1391.238	238.5621	32.1113	-1492.1506	175.8535	708.3017	-1006.0756	207.2267	636.0679	-992.4104	161.4475	647.6895	-1009.2802	161.4473	496.8544	-1013.476	209.2906	461.5666	-1151.4518	117.4023	442.4825	-1014.9158	91.9987	323.2208	-998.2428	131.4337	255.8951	-982.9942	85.3903	262.1278	-1002.1438	90.0942	86.7881	-1016.7849	153.0613	97.0193	-1084.2662	58.0537	38.2729	-1077.6693	261.6053	43.2008	-1022.2437	202.3529	40.9665	-937.2059	282.6993	1365.9973	-1224.2535	319.5928	1208.3849	-1226.3203	143.7774	1413.0226	-1399.7672	130.8752	1347.8831	-1513.2904	121.3177	1297.3528	-1555.5452	155.5412	1332.6467	-1572.769	166.6524	1295.1125	-1681.0642	189.196	1209.0763	-1631.0702	195.2727	1263.1692	-1766.7185	200.8391	1226.5956	-1821.1746	239.5553	1257.9651	-1815.022	308.7226	1186.291	-1860.4385	251.3523	1208.3948	-1902.8922	161.434	1402.3401	-1040.9615	171.987	1335.3629	-908.581	222.1746	1326.2905	-865.8576	177.0311	1315.3975	-845.154	169.5608	1288.8862	-794.6174	224.7694	1194.9761	-808.5359	227.5797	1270.8009	-672.3094	278.5975	1258.8828	-632.7509	233.6377	1246.3049	-612.4192	316.0136	1178.55	-580.181	250.1808	1211.1291	-543.3223	1512.0814	1285.4509	-2307.4001	1540.6539	1283.4084	-83.9565	204.2188	481.9973	-1355.0049	185.369	479.2105	-1082.4639	119.8557	81.448	-1049.6633	146.2322	80.2651	-1393.2749	232.9936	873.5019	-1139.1502	229.9122	873.8136	-1304.057
175	0.87	358.4963	1573.2234	-1215.6586	300.0365	1588.2765	-1138.9423	295.3434	1588.4287	-1291.0825	133.7848	1449.2606	-1211.5132	78.6437	1244.5183	-1226.0712	74.3386	1212.2032	-1230.3514	69.3807	1151.2948	-1178.5115	78.5806	1150.4127	-1227.4158	91.8258	1109.5314	-1226.2848	68.4094	1087.0969	-1225.5768	69.7008	1027.5011	-1172.4644	62.0253	1025.3356	-1222.0437	72.6903	975.5953	-1247.3942	79.8405	985.2262	-1197.7202	49.2883	927.232	-1208.8733	288.585	942.4234	-1336.363	292.8341	941.9912	-1108.7778	84.4518	991.7101	-1259.2604	85.247	990.3738	-1170.1162	202.3779	737.6097	-1443.358	153.1327	677.0698	-1426.4266	201.3919	675.6212	-1440.5052	192.538	497.9955	-1426.9482	215.8994	465.9831	-1283.1051	152.2971	442.377	-1428.001	144.8298	326.3487	-1449.6399	101.6722	260.3058	-1444.3124	150.9876	264.4832	-1449.9512	126.1535	85.3412	-1434.0842	169.3626	96.3358	-1350.4451	78.4406	38.9218	-1374.8293	289.6544	47.3085	-1391.2368	238.5672	32.1095	-1492.1458	175.8536	708.2987	-1006.0719	207.2374	636.0662	-992.4094	161.4474	647.6755	-1009.2753	161.4459	496.8498	-1013.4776	209.2903	461.5594	-1151.4589	117.4034	442.4814	-1014.9196	91.9557	323.2267	-998.2103	131.4354	255.8971	-982.9912	85.3823	262.1247	-1002.1292	90.0911	86.7892	-1016.7849	153.0518	97.0162	-1084.2633	58.0547	38.2685	-1077.6639	261.6038	43.1941	-1022.245	202.3508	40.9577	-937.2034	282.7404	1365.9708	-1224.2498	319.6192	1208.371	-1226.3215	143.7979	1413.0095	-1399.7552	130.8921	1347.8738	-1513.2845	121.339	1297.3408	-1555.5435	155.5622	1332.6343	-1572.7524	166.6831	1295.1151	-1681.0573	189.2103	1209.0813	-1631.0743	195.2937	1263.1654	-1766.7145	200.8549	1226.6035	-1821.1866	239.4649	1257.9486	-1815.0486	308.7307	1186.2798	-1860.4349	251.3721	1208.3954	-1902.8893	161.4571	1402.3448	-1040.9543	172.0048	1335.366	-908.5829	222.1839	1326.2782	-865.8683	177.0313	1315.4176	-845.1513	169.5762	1288.8995	-794.6201	224.78	1194.9976	-808.5135	227.5525	1270.8203	-672.3157	278.5697	1258.8976	-632.7573	233.8494	1246.2035	-612.3831	316.0004	1178.5773	-580.1533	250.1848	1211.1553	-543.3052	1512.1019	1285.4525	-2307.416	1540.6505	1283.4053	-83.9586	204.2187	481.9893	-1355.0267	185.3681	479.2046	-1082.4682	119.8492	81.447	-1049.6617	146.232	80.2661	-1393.2712	233.0068	873.4983	-1139.1407	229.9279	873.8115	-1304.048
176	0.875	358.5477	1573.2152	-1215.656	300.088	1588.2708	-1138.942	295.3924	1588.417	-1291.0801	133.8031	1449.2659	-1211.505	78.6706	1244.5159	-1226.0818	74.3748	1212.2031	-1230.3446	69.4071	1151.2944	-1178.5156	78.5993	1150.4122	-1227.4154	91.8555	1109.5271	-1226.286	68.4407	1087.0972	-1225.5795	69.7244	1027.5055	-1172.4561	62.039	1025.3326	-1222.0463	72.725	975.6285	-1247.3828	79.9064	985.2217	-1197.7062	49.3033	927.2322	-1208.8689	288.6043	942.4208	-1336.3589	292.8576	941.9855	-1108.7799	84.4712	991.7104	-1259.2601	85.2686	990.3718	-1170.1272	202.4047	737.6088	-1443.3645	153.1548	677.0663	-1426.4258	201.43	675.6196	-1440.5125	192.5394	497.9962	-1426.9469	216.2778	466.0523	-1282.9136	152.2964	442.3749	-1428.0037	144.8395	326.3491	-1449.6389	101.681	260.3125	-1444.3151	150.9909	264.4811	-1449.953	126.1571	85.3442	-1434.0916	169.369	96.3394	-1350.4427	78.4421	38.9253	-1374.8269	289.6524	47.3062	-1391.2419	238.5632	32.1111	-1492.1494	175.8679	708.2981	-1006.0722	207.2444	636.064	-992.4009	161.4523	647.6714	-1009.2664	161.45	496.8461	-1013.4769	209.292	461.5604	-1151.4515	117.4027	442.4817	-1014.9198	91.9134	323.2371	-998.186	131.5366	255.8064	-983.2135	85.2815	262.0085	-1002.0343	90.0969	86.7868	-1016.7805	153.0543	97.0168	-1084.2587	58.0504	38.2693	-1077.6641	261.6046	43.1918	-1022.2521	202.3541	40.9595	-937.201	282.7747	1365.9559	-1224.2465	319.639	1208.3594	-1226.3221	143.8218	1413.0012	-1399.7499	130.9302	1347.8646	-1513.2743	121.3595	1297.3295	-1555.541	155.5928	1332.6331	-1572.7565	166.6992	1295.1194	-1681.0559	189.2329	1209.0822	-1631.0691	195.3141	1263.1736	-1766.7196	200.8902	1226.605	-1821.1765	239.6031	1257.9542	-1815.0148	308.742	1186.2687	-1860.434	251.3899	1208.3955	-1902.8851	161.4866	1402.3497	-1040.9553	172.0441	1335.3624	-908.5835	222.1803	1326.5239	-865.7319	177.0468	1315.4362	-845.1423	169.5737	1288.916	-794.6025	224.7908	1195.0198	-808.5007	227.576	1270.8383	-672.2787	278.54	1258.8931	-632.7705	233.6696	1246.3226	-612.3819	316.0016	1178.6073	-580.1277	250.1856	1211.1927	-543.2858	1512.0819	1285.4414	-2307.4062	1540.6473	1283.412	-83.9583	204.4086	482.0243	-1354.9302	185.371	479.2032	-1082.4642	119.8534	81.4461	-1049.6572	146.2322	80.2703	-1393.2762	233.0288	873.4939	-1139.1395	229.9468	873.8093	-1304.04
177	0.88	358.6003	1573.2025	-1215.6515	300.127	1588.2802	-1138.9435	295.4312	1588.4055	-1291.085	133.8456	1449.266	-1211.4968	78.704	1244.5194	-1226.0784	74.4082	1212.2052	-1230.3365	69.4273	1151.2944	-1178.5183	78.605	1150.4149	-1227.4197	91.8815	1109.526	-1226.2865	68.4578	1087.0985	-1225.5719	69.7419	1027.5029	-1172.4537	62.0654	1025.3353	-1222.0387	72.76	975.6408	-1247.4221	79.8955	985.242	-1197.7115	49.3232	927.2459	-1208.8865	288.6189	942.4163	-1336.3546	292.8636	941.9727	-1108.7799	84.4839	991.7087	-1259.2784	85.2816	990.3784	-1170.1176	202.4219	737.6031	-1443.363	153.1572	677.0767	-1426.4174	201.4457	675.6226	-1440.5161	192.5443	497.9977	-1426.9418	216.2709	466.0474	-1282.9625	152.3026	442.3751	-1427.9979	144.8487	326.3547	-1449.6433	101.6873	260.3097	-1444.3333	150.9978	264.4847	-1449.9537	126.1609	85.3436	-1434.0919	169.3734	96.3416	-1350.4529	78.4339	38.9244	-1374.8289	289.6511	47.3071	-1391.2405	238.5691	32.1071	-1492.145	175.8802	708.2915	-1006.0676	207.2351	636.0533	-992.4003	161.4591	647.674	-1009.2653	161.4497	496.8427	-1013.4813	209.2914	461.5567	-1151.4482	117.4115	442.4806	-1014.9166	92.0136	323.2179	-998.2527	131.4407	255.8946	-982.9925	85.3872	262.1282	-1002.1268	90.0892	86.7857	-1016.7783	153.0552	97.0167	-1084.257	58.0516	38.2643	-1077.6676	261.6046	43.1945	-1022.2493	202.3622	40.9531	-937.2056	282.8207	1365.9445	-1224.2487	319.649	1208.3389	-1226.3173	143.8509	1412.9944	-1399.7463	130.9516	1347.8685	-1513.2788	121.3877	1297.3268	-1555.5292	155.6101	1332.6299	-1572.7515	166.7314	1295.1155	-1681.0515	189.2526	1209.0708	-1631.0612	195.3475	1263.1707	-1766.7177	200.9196	1226.6246	-1821.1847	239.6299	1257.951	-1815.0109	308.7492	1186.2623	-1860.4392	251.4063	1208.3987	-1902.8888	161.5133	1402.349	-1040.9536	172.0281	1335.3827	-908.5326	222.1724	1326.5459	-865.7287	177.0519	1315.4543	-845.1381	169.5873	1288.9303	-794.608	224.7921	1195.0341	-808.4813	227.5606	1270.8604	-672.3114	278.449	1259.0535	-632.8557	233.7574	1246.428	-612.2906	315.9981	1178.6415	-580.1042	250.1853	1211.2219	-543.2747	1512.0798	1285.4685	-2307.397	1540.6495	1283.4109	-83.9568	204.4076	482.0225	-1354.9521	185.3705	479.1997	-1082.4648	119.8498	81.4455	-1049.6552	146.2364	80.271	-1393.281	233.0322	873.4854	-1139.142	229.9564	873.8069	-1304.049
178	0.885	358.6213	1573.2067	-1215.6637	300.195	1588.2773	-1138.9407	295.484	1588.3962	-1291.0813	133.8862	1449.2688	-1211.4904	78.7311	1244.5247	-1226.0787	74.4374	1212.2144	-1230.3456	69.4555	1151.2949	-1178.5216	78.6239	1150.4215	-1227.4211	91.9035	1109.5328	-1226.2826	68.4775	1087.1019	-1225.5752	69.7591	1027.5081	-1172.4585	62.0852	1025.3396	-1222.0428	72.7528	975.6034	-1247.3992	79.9059	985.2283	-1197.7438	49.3398	927.2368	-1208.8695	288.6404	942.4089	-1336.3502	292.8753	941.9658	-1108.7827	84.5015	991.7085	-1259.2709	85.3095	990.3871	-1170.1085	202.4393	737.6069	-1443.3645	153.1728	677.0638	-1426.4178	201.4591	675.6204	-1440.5221	192.5534	497.9999	-1426.9443	215.9248	465.9852	-1283.0502	152.3046	442.3752	-1427.9944	144.8556	326.3629	-1449.6406	101.6968	260.3155	-1444.3416	151.0111	264.4885	-1449.9563	126.1585	85.3476	-1434.0952	169.37	96.3356	-1350.4502	78.4372	38.933	-1374.8319	289.6542	47.3076	-1391.2378	238.5674	32.1065	-1492.15	175.8836	708.2883	-1006.0596	207.2447	636.0474	-992.3883	161.4675	647.6756	-1009.2534	161.4566	496.8377	-1013.477	209.3045	461.5558	-1151.4567	117.4182	442.4775	-1014.9196	91.9361	323.2452	-998.1693	131.4427	255.8974	-982.9929	85.3966	262.1206	-1002.1237	90.0893	86.785	-1016.7795	153.0556	97.0168	-1084.2592	58.0551	38.2627	-1077.6698	261.6011	43.1935	-1022.2386	202.3545	40.9574	-937.205	282.8629	1365.9397	-1224.2502	319.6695	1208.3235	-1226.3191	143.8734	1412.9906	-1399.7444	130.9788	1347.8589	-1513.2726	121.4202	1297.3262	-1555.5287	155.635	1332.618	-1572.7432	166.7497	1295.1085	-1681.0454	189.2819	1209.0631	-1631.0712	195.37	1263.1754	-1766.7104	200.9376	1226.6307	-1821.1782	239.6514	1257.9445	-1815.0045	308.7824	1186.2618	-1860.4423	251.4169	1208.3965	-1902.8927	161.5335	1402.355	-1040.9524	172.0677	1335.3936	-908.5698	222.2053	1326.5576	-865.7145	177.0574	1315.4714	-845.1291	169.589	1288.9418	-794.5971	224.8051	1195.0513	-808.4659	227.5857	1270.8831	-672.2723	278.4922	1258.958	-632.7248	233.5868	1246.5582	-612.2886	315.9992	1178.6722	-580.0817	250.1784	1211.2549	-543.2526	1512.0614	1285.453	-2307.3806	1540.651	1283.4077	-83.9536	204.2391	481.9926	-1354.9973	185.3805	479.1967	-1082.4668	119.8499	81.4453	-1049.6569	146.2378	80.2693	-1393.2802	233.0412	873.482	-1139.1434	229.9723	873.8031	-1304.051
